C:\Users\r0593348\3dpredictsim\Results\Batchsim_tmt_linear\Pog_s1_tmt_bCst_d00_k1000_ig24_act_GRF.mot
nRows=27
nColumns=19

name C:\Users\r0593348\3dpredictsim\Results\Batchsim_tmt_linear\Pog_s1_tmt_bCst_d00_k1000_ig24_act_GRF.mot
datacolumns 19
datarows 27
range 0.0000000000 0.3257525061
endheader
time 	ground_force_vx	ground_force_vy	ground_force_vz	ground_force_px	ground_force_py	ground_force_pz	1_ground_force_vx	1_ground_force_vy	1_ground_force_vz	1_ground_force_px	1_ground_force_py	1_ground_force_pz	ground_torque_x	ground_torque_y	ground_torque_z	1_ground_torque_x	1_ground_torque_y	1_ground_torque_z
        0.0000000000	      -40.7076126859	       31.7761224012	        9.5654166650	        0.2008198136	        0.0000000000	        0.0507948051	      110.1132446045	      438.5161466898	       -1.6542042068	       -0.3616516553	        0.0000000000	       -0.0357219285	        0.0000000000	        0.0000000000	        0.0000000000	        0.0000000000	        0.0000000000	        0.0000000000	
        0.0125289425	     -115.3588245812	      117.4767162856	       39.3680480776	        0.2090527536	        0.0000000000	        0.0489387036	       80.3122281826	      344.2076515938	       -5.9599835236	       -0.3545593564	        0.0000000000	       -0.0332355171	        0.0000000000	        0.0000000000	        0.0000000000	        0.0000000000	        0.0000000000	        0.0000000000	
        0.0250578851	      -59.5500532338	      305.4349457085	       14.4782340472	        0.2145740614	        0.0000000000	        0.0471486543	       45.9112333082	      235.5762248968	      -13.2556070446	       -0.3420239669	        0.0000000000	       -0.0283858565	        0.0000000000	        0.0000000000	        0.0000000000	        0.0000000000	        0.0000000000	        0.0000000000	
        0.0375868276	      -60.6673759445	      513.3585779622	       -5.4088967185	        0.2175632655	        0.0000000000	        0.0469872596	       29.3596243197	      179.5827790568	      -12.8261649808	       -0.3335437265	        0.0000000000	       -0.0243823832	        0.0000000000	        0.0000000000	        0.0000000000	        0.0000000000	        0.0000000000	        0.0000000000	
        0.0501157702	     -106.7306500283	      720.0972645708	      -14.1494805391	        0.2257809598	        0.0000000000	        0.0488707347	       27.3224965615	      140.7339451030	      -13.5250572829	       -0.3331379080	        0.0000000000	       -0.0245458417	        0.0000000000	        0.0000000000	        0.0000000000	        0.0000000000	        0.0000000000	        0.0000000000	
        0.0626447127	     -141.3048769138	      859.8218839167	      -19.4561078917	        0.2341855911	        0.0000000000	        0.0508967367	       18.0568366269	       91.5488486954	      -14.9018703353	       -0.3328267171	        0.0000000000	       -0.0248938428	        0.0000000000	        0.0000000000	        0.0000000000	        0.0000000000	        0.0000000000	        0.0000000000	
        0.0751736553	     -148.1988020693	      888.6870788747	      -20.1154417273	        0.2396602003	        0.0000000000	        0.0520577333	        1.5916900828	       36.1532202812	       -8.4013439691	       -0.3334606414	        0.0000000000	       -0.0249579682	        0.0000000000	        0.0000000000	        0.0000000000	        0.0000000000	        0.0000000000	        0.0000000000	
        0.0877025978	     -136.7572811920	      864.7912751675	      -19.0270812811	        0.2435929688	        0.0000000000	        0.0527283045	        0.1975937838	       -0.1966027664	        0.0041818236	        0.0000000000	        0.0000000000	        0.0000000000	        0.0000000000	        0.0000000000	        0.0000000000	        0.0000000000	        0.0000000000	        0.0000000000	
        0.1002315403	     -119.9718841855	      820.8817512694	      -18.0111230563	        0.2472089537	        0.0000000000	        0.0530819691	        0.0017562633	       -0.0013904844	       -0.0001021005	        0.0000000000	        0.0000000000	        0.0000000000	        0.0000000000	        0.0000000000	        0.0000000000	        0.0000000000	        0.0000000000	        0.0000000000	
        0.1127604829	     -104.2321502758	      776.0580018134	      -17.5085509542	        0.2510794250	        0.0000000000	        0.0531635680	        0.0041485027	       -0.0028002859	       -0.0002945501	        0.0000000000	        0.0000000000	        0.0000000000	        0.0000000000	        0.0000000000	        0.0000000000	        0.0000000000	        0.0000000000	        0.0000000000	
        0.1252894254	      -91.5407030037	      737.0106458837	      -17.1966191691	        0.2553881750	        0.0000000000	        0.0530913402	        0.0394206653	       -0.0237448566	       -0.0029300613	        0.0000000000	        0.0000000000	        0.0000000000	        0.0000000000	        0.0000000000	        0.0000000000	        0.0000000000	        0.0000000000	        0.0000000000	
        0.1378183680	      -81.5461287342	      708.0011284269	      -17.6946636201	        0.2605613028	        0.0000000000	        0.0527808927	       -0.2529418869	        0.1397940282	        0.0195621647	        0.0000000000	        0.0000000000	        0.0000000000	        0.0000000000	        0.0000000000	        0.0000000000	        0.0000000000	        0.0000000000	        0.0000000000	
        0.1503473105	      -71.8060207926	      682.2095930780	      -18.0615042555	        0.2658268764	        0.0000000000	        0.0524290131	       -0.1709469402	        0.0890373035	        0.0126123560	        0.0000000000	        0.0000000000	        0.0000000000	        0.0000000000	        0.0000000000	        0.0000000000	        0.0000000000	        0.0000000000	        0.0000000000	
        0.1628762531	      -62.3649293521	      657.5117312535	      -18.8527234388	        0.2707486350	        0.0000000000	        0.0521615830	       -0.1022799494	        0.0507554463	        0.0074027819	        0.0000000000	        0.0000000000	        0.0000000000	        0.0000000000	        0.0000000000	        0.0000000000	        0.0000000000	        0.0000000000	        0.0000000000	
        0.1754051956	      -53.5587073294	      636.4102597603	      -19.2517949828	        0.2755314736	        0.0000000000	        0.0519816289	       -0.0731591759	        0.0348702440	        0.0052285402	        0.0000000000	        0.0000000000	        0.0000000000	        0.0000000000	        0.0000000000	        0.0000000000	        0.0000000000	        0.0000000000	        0.0000000000	
        0.1879341381	      -45.9019232095	      619.4387619571	      -19.6867253894	        0.2803462313	        0.0000000000	        0.0518397663	       -0.0652704192	        0.0300795380	        0.0046216727	        0.0000000000	        0.0000000000	        0.0000000000	        0.0000000000	        0.0000000000	        0.0000000000	        0.0000000000	        0.0000000000	        0.0000000000	
        0.2004630807	      -39.1263913788	      605.5483935344	      -19.8201037210	        0.2851643164	        0.0000000000	        0.0517152386	       -0.0710024618	        0.0318111822	        0.0049471250	        0.0000000000	        0.0000000000	        0.0000000000	        0.0000000000	        0.0000000000	        0.0000000000	        0.0000000000	        0.0000000000	        0.0000000000	
        0.2129920232	      -33.2717431970	      595.7799428712	      -19.7172618620	        0.2903267558	        0.0000000000	        0.0515563003	       -0.0906305624	        0.0396315854	        0.0061669275	        0.0000000000	        0.0000000000	        0.0000000000	        0.0000000000	        0.0000000000	        0.0000000000	        0.0000000000	        0.0000000000	        0.0000000000	
        0.2255209658	      -28.4212828442	      590.2613574211	      -19.4137096964	        0.2960736144	        0.0000000000	        0.0513086143	       -0.1313846914	        0.0562043713	        0.0086935554	        0.0000000000	        0.0000000000	        0.0000000000	        0.0000000000	        0.0000000000	        0.0000000000	        0.0000000000	        0.0000000000	        0.0000000000	
        0.2380499083	      -24.8851128960	      587.7127893647	      -19.0292273559	        0.3022944910	        0.0000000000	        0.0509562780	       -0.2089369590	        0.0875524452	        0.0133186833	        0.0000000000	        0.0000000000	        0.0000000000	        0.0000000000	        0.0000000000	        0.0000000000	        0.0000000000	        0.0000000000	        0.0000000000	
        0.2505788509	      -21.8834691880	      587.1238881156	      -18.8307006900	        0.3088243382	        0.0000000000	        0.0505085467	       -0.3470580958	        0.1427220796	        0.0211944578	        0.0000000000	        0.0000000000	        0.0000000000	        0.0000000000	        0.0000000000	        0.0000000000	        0.0000000000	        0.0000000000	        0.0000000000	
        0.2631077934	      -19.3187838858	      587.5142670861	      -18.6128270902	        0.3154919912	        0.0000000000	        0.0499944670	       -0.5688461069	        0.2300921741	        0.0332045758	        0.0000000000	        0.0000000000	        0.0000000000	        0.0000000000	        0.0000000000	        0.0000000000	        0.0000000000	        0.0000000000	        0.0000000000	
        0.2756367359	      -16.7824010626	      587.2528038606	      -18.8525475983	        0.3220676724	        0.0000000000	        0.0494518088	       -0.8770439415	        0.3498122664	        0.0489613178	        0.0000000000	        0.0000000000	        0.0000000000	        0.0000000000	        0.0000000000	        0.0000000000	        0.0000000000	        0.0000000000	        0.0000000000	
        0.2881656785	      -14.0716236345	      585.2637522002	      -19.1750311824	        0.3285119936	        0.0000000000	        0.0488993866	       -1.2360451358	        0.4873050428	        0.0662664919	        0.0000000000	        0.0000000000	        0.0000000000	        0.0000000000	        0.0000000000	        0.0000000000	        0.0000000000	        0.0000000000	        0.0000000000	
        0.3006946210	      -11.2324958929	      581.6816808821	      -19.2878023962	        0.3348354542	        0.0000000000	        0.0483409569	       -1.5712202820	        0.6137397213	        0.0810058019	        0.0000000000	        0.0000000000	        0.0000000000	        0.0000000000	        0.0000000000	        0.0000000000	        0.0000000000	        0.0000000000	        0.0000000000	
        0.3132235636	       -8.2196810133	      576.8574783121	      -19.0968709058	        0.3410274387	        0.0000000000	        0.0477778600	       -1.8095168033	        0.7017329532	        0.0892856468	        0.0000000000	        0.0000000000	        0.0000000000	        0.0000000000	        0.0000000000	        0.0000000000	        0.0000000000	        0.0000000000	        0.0000000000	
        0.3257525061	       -4.9920278795	      570.8120036167	      -18.2222389750	        0.3471173944	        0.0000000000	        0.0472069084	       -1.9294790342	        0.7437231432	        0.0893660076	        0.0000000000	        0.0000000000	        0.0000000000	        0.0000000000	        0.0000000000	        0.0000000000	        0.0000000000	        0.0000000000	        0.0000000000	
